<svg xmlns="http://www.w3.org/2000/svg" viewBox="0 0 600 800" width="600" height="800" role="img" aria-label="Red face-cream tube on green tiles with tomatoes">
  <defs>
    <linearGradient id="bg" x1="0" y1="0" x2="0" y2="1">
      <stop offset="0" stop-color="#f6efe2"/>
      <stop offset="1" stop-color="#e4d9c2"/>
    </linearGradient>
    <linearGradient id="tile" x1="0" y1="0" x2="0" y2="1">
      <stop offset="0" stop-color="#37795a"/>
      <stop offset="1" stop-color="#245643"/>
    </linearGradient>
    <linearGradient id="tube" x1="0" y1="0" x2="1" y2="0.3">
      <stop offset="0" stop-color="#e0473a"/>
      <stop offset="0.55" stop-color="#c93325"/>
      <stop offset="1" stop-color="#8f1f16"/>
    </linearGradient>
    <linearGradient id="tube2" x1="0" y1="0" x2="1" y2="0">
      <stop offset="0" stop-color="#b32b1f"/>
      <stop offset="1" stop-color="#7c170f"/>
    </linearGradient>
    <linearGradient id="tomato" x1="0.2" y1="0" x2="0.9" y2="1">
      <stop offset="0" stop-color="#f0604d"/>
      <stop offset="1" stop-color="#b52b1c"/>
    </linearGradient>
    <radialGradient id="key" cx="0.5" cy="0.28" r="0.7">
      <stop offset="0" stop-color="#ffffff" stop-opacity="0.75"/>
      <stop offset="1" stop-color="#ffffff" stop-opacity="0"/>
    </radialGradient>
    <radialGradient id="vig" cx="0.5" cy="0.45" r="0.78">
      <stop offset="0.55" stop-color="#000000" stop-opacity="0"/>
      <stop offset="1" stop-color="#000000" stop-opacity="0.32"/>
    </radialGradient>
    <filter id="soft" x="-60%" y="-60%" width="220%" height="220%">
      <feGaussianBlur stdDeviation="18"/>
    </filter>
    <filter id="grain" x="0" y="0" width="100%" height="100%">
      <feTurbulence type="fractalNoise" baseFrequency="0.87" numOctaves="2" stitchTiles="stitch"/>
      <feColorMatrix type="saturate" values="0"/>
      <feComponentTransfer><feFuncA type="linear" slope="0.075"/></feComponentTransfer>
    </filter>
    <linearGradient id="t1" x1="0" y1="0" x2="1" y2="0.3">
      <stop offset="0" stop-color="#f2efe6"/>
      <stop offset="0.5" stop-color="#d8d3c5"/>
      <stop offset="1" stop-color="#8e887a"/>
    </linearGradient>
    <linearGradient id="t2" x1="0" y1="0" x2="1" y2="0">
      <stop offset="0" stop-color="#2a2a2a"/>
      <stop offset="1" stop-color="#0d0d0d"/>
    </linearGradient>
    <linearGradient id="j1" x1="0" y1="0" x2="1" y2="0.4">
      <stop offset="0" stop-color="#f4f1e8"/>
      <stop offset="0.5" stop-color="#ded8ca"/>
      <stop offset="1" stop-color="#a49d8d"/>
    </linearGradient>
    <linearGradient id="l1" x1="0" y1="0" x2="1" y2="0.4">
      <stop offset="0" stop-color="#242424"/>
      <stop offset="1" stop-color="#0d0d0d"/>
    </linearGradient>
    <linearGradient id="b1" x1="0" y1="0" x2="1" y2="0.3">
      <stop offset="0" stop-color="#f7f4ec"/>
      <stop offset="0.5" stop-color="#ded8c9"/>
      <stop offset="1" stop-color="#a49b88"/>
    </linearGradient>
    <linearGradient id="p1" x1="0" y1="0" x2="1" y2="0.4">
      <stop offset="0" stop-color="#2f2f2f"/>
      <stop offset="1" stop-color="#141414"/>
    </linearGradient>
  </defs>

  <rect width="600" height="800" fill="url(#bg)"/>
  <rect width="600" height="800" fill="url(#key)"/>
  <rect y="500" width="600" height="300" fill="url(#tile)"/>
  <path d="M0 500 H600" stroke="#78b394" stroke-opacity="0.35" stroke-width="5"/>
  <path d="M0 576 H600" stroke="#78b394" stroke-opacity="0.35" stroke-width="5"/>
  <path d="M0 652 H600" stroke="#78b394" stroke-opacity="0.35" stroke-width="5"/>
  <path d="M0 728 H600" stroke="#78b394" stroke-opacity="0.35" stroke-width="5"/>
  <path d="M-40 500 V800" stroke="#78b394" stroke-opacity="0.30" stroke-width="5"/>
  <path d="M36 500 V800" stroke="#78b394" stroke-opacity="0.30" stroke-width="5"/>
  <path d="M112 500 V800" stroke="#78b394" stroke-opacity="0.30" stroke-width="5"/>
  <path d="M188 500 V800" stroke="#78b394" stroke-opacity="0.30" stroke-width="5"/>
  <path d="M264 500 V800" stroke="#78b394" stroke-opacity="0.30" stroke-width="5"/>
  <path d="M340 500 V800" stroke="#78b394" stroke-opacity="0.30" stroke-width="5"/>
  <path d="M416 500 V800" stroke="#78b394" stroke-opacity="0.30" stroke-width="5"/>
  <path d="M492 500 V800" stroke="#78b394" stroke-opacity="0.30" stroke-width="5"/>
  <path d="M568 500 V800" stroke="#78b394" stroke-opacity="0.30" stroke-width="5"/>
  <ellipse cx="300" cy="668" rx="168" ry="34" fill="#000000" fill-opacity="0.28" filter="url(#soft)"/>
  <circle cx="148" cy="646" r="56" fill="url(#tomato)"/>
  <ellipse cx="131" cy="627" rx="13" ry="9" fill="#ffffff" fill-opacity="0.35"/>
  <path d="M148 592 l-16 -12 l18 4 l6 -14 l6 14 l18 -4 l-16 12 z" fill="#3f7d3a"/>
  <circle cx="462" cy="664" r="62" fill="url(#tomato)"/>
  <ellipse cx="443" cy="643" rx="15" ry="10" fill="#ffffff" fill-opacity="0.35"/>
  <path d="M462 604 l-16 -12 l18 4 l6 -14 l6 14 l18 -4 l-16 12 z" fill="#3f7d3a"/>
  <circle cx="506" cy="574" r="40" fill="url(#tomato)"/>
  <ellipse cx="494" cy="560" rx="10" ry="6" fill="#ffffff" fill-opacity="0.35"/>
  <path d="M506 536 l-16 -12 l18 4 l6 -14 l6 14 l18 -4 l-16 12 z" fill="#3f7d3a"/>
  <rect x="214.0" y="274" width="172" height="30" rx="7" fill="url(#tube2)"/>
  <rect x="222.0" y="296" width="156" height="342" rx="37" fill="url(#tube)"/>
  <rect x="253" y="620" width="94" height="44" rx="10" fill="url(#tube2)"/>
  <rect x="222.0" y="296" width="156" height="342" rx="37" fill="#000000" fill-opacity="0.10"/>
  <rect x="236" y="424" width="128" height="109" rx="6" fill="#f6f2e8" fill-opacity="0.92"/>
  <rect x="252" y="453" width="96" height="10" rx="5" fill="#1c1c1c" fill-opacity="0.75"/>
  <rect x="252" y="482" width="58" height="6" rx="3" fill="#1c1c1c" fill-opacity="0.35"/>
  <circle cx="300" cy="518" r="13" fill="#1c1c1c" fill-opacity="0.6"/>
  <path d="M378 314 V652" stroke="#ffd9c9" stroke-width="4" stroke-linecap="round" stroke-opacity="0.85"/>
  <rect width="600" height="800" fill="url(#vig)"/>
  <rect width="600" height="800" filter="url(#grain)"/>
</svg>
